<?xml version="1.0" encoding="UTF-8"?> <svg xmlns="http://www.w3.org/2000/svg" id="Слой_1" data-name="Слой 1" viewBox="0 0 209.25 184.34"> <defs> <style>.cls-1{fill:#95ca4e;}</style> </defs> <title>СЗН лого</title> <path class="cls-1" d="M94.2,119.64a2.94,2.94,0,0,0,2.89-2.41H91.31a2.94,2.94,0,0,0,2.89,2.41"></path> <path class="cls-1" d="M148.84,119.64a2.94,2.94,0,0,0,2.89-2.41H146a2.93,2.93,0,0,0,2.89,2.41"></path> <path class="cls-1" d="M49,119.64a2.94,2.94,0,0,0,2.89-2.41H46.14A2.94,2.94,0,0,0,49,119.64"></path> <path class="cls-1" d="M116.48,160.35l1.86-.36v-2.1H105.08V160l1.83.36,0,1.9a11.58,11.58,0,0,1-.47,3.43,6.89,6.89,0,0,1-1.61,2.44h-1.12l.3,6.57h3.26v-3.87h7.62v3.87h3.25l.24-6.55h-1.88ZM113,168.13H108.8a9.27,9.27,0,0,0,1.08-2.5,15.24,15.24,0,0,0,.5-3.38v-1.58H113Z"></path> <path class="cls-1" d="M125.78,142.88a1.47,1.47,0,0,1-1.55,1h-.38l0,2.75h.55a4.42,4.42,0,0,0,4-1.8,10.46,10.46,0,0,0,1.18-5.62v-2.81h3.11v7.78l-1.86.36v2.09h7.2v-2.09l-1.86-.36v-8l1.86-.36v-2.1h-13.8v2.1l1.86.36v3a12.37,12.37,0,0,1-.36,3.68"></path> <path class="cls-1" d="M125.83,157.65a5.26,5.26,0,0,0-4.25,1.86,7.08,7.08,0,0,0-1.58,4.74v.48a6.41,6.41,0,0,0,1.67,4.55,5.83,5.83,0,0,0,4.47,1.79,8.94,8.94,0,0,0,2.84-.43,6.75,6.75,0,0,0,2.07-1.06l-.94-2.15a8.8,8.8,0,0,1-1.67.73,6.75,6.75,0,0,1-1.92.23,2.65,2.65,0,0,1-2.06-.83,3.37,3.37,0,0,1-.86-2.1l0-.07h7.72v-1.9a6.08,6.08,0,0,0-1.45-4.26,5.22,5.22,0,0,0-4.06-1.58m2.09,5.44h-4.28l0-.06a3.87,3.87,0,0,1,.69-1.95,1.82,1.82,0,0,1,1.53-.74,1.88,1.88,0,0,1,1.57.66,2.8,2.8,0,0,1,.52,1.77Z"></path> <path class="cls-1" d="M120.85,143.22a8.9,8.9,0,0,1-1.67.73,6.74,6.74,0,0,1-1.92.23,2.65,2.65,0,0,1-2.06-.82,3.41,3.41,0,0,1-.86-2.1l0-.07h7.72v-1.9a6.09,6.09,0,0,0-1.45-4.27,5.9,5.9,0,0,0-8.31.28,7.07,7.07,0,0,0-1.58,4.74v.48a6.42,6.42,0,0,0,1.67,4.55,5.85,5.85,0,0,0,4.47,1.79,9,9,0,0,0,2.84-.43,6.81,6.81,0,0,0,2.07-1.07ZM115,136.88a1.82,1.82,0,0,1,1.53-.74,1.88,1.88,0,0,1,1.57.66,2.81,2.81,0,0,1,.52,1.78v.31h-4.28l0-.06a3.88,3.88,0,0,1,.69-1.95"></path> <path class="cls-1" d="M60.62,142.92a2.61,2.61,0,0,0-.76-1.86A4.08,4.08,0,0,0,57.63,140a3.73,3.73,0,0,0,1.72-1.07,2.43,2.43,0,0,0,.6-1.61,3,3,0,0,0-1.44-2.7,7.51,7.51,0,0,0-4-.91H47.23v2.1l1.86.36v8l-1.86.36v2.09h8.1a6.92,6.92,0,0,0,3.92-.93,3.12,3.12,0,0,0,1.37-2.76m-8.06-6.57h1.92a2.66,2.66,0,0,1,1.48.33,1.15,1.15,0,0,1,.49,1,1.07,1.07,0,0,1-.43.92,2.4,2.4,0,0,1-1.35.32H52.56Zm4.12,7.27a2.23,2.23,0,0,1-1.36.34H52.56v-2.74h2.76a2.12,2.12,0,0,1,1.38.36,1.26,1.26,0,0,1,.42,1,1.19,1.19,0,0,1-.44,1"></path> <path class="cls-1" d="M79.46,168.08c0-.17,0-.36,0-.56v-5.34a4,4,0,0,0-1.5-3.35,6.14,6.14,0,0,0-3.9-1.18,8,8,0,0,0-2.7.45,9.72,9.72,0,0,0-2.19,1.09V162h2.63l.23-1.38a2.76,2.76,0,0,1,.75-.33,3.89,3.89,0,0,1,1.06-.13,2.24,2.24,0,0,1,1.59.51,1.92,1.92,0,0,1,.54,1.45v1.26H74.18a7.64,7.64,0,0,0-4.28,1,3.2,3.2,0,0,0-1.46,2.81A3.64,3.64,0,0,0,69.56,170a4.29,4.29,0,0,0,3,1,4.61,4.61,0,0,0,2-.45,4.83,4.83,0,0,0,1.51-1.16,4.48,4.48,0,0,0,.17.68,6,6,0,0,0,.25.66h4v-2.09l-1.06-.14a3.55,3.55,0,0,1,0-.5m-3.5-.79a2.75,2.75,0,0,1-1,.85,3,3,0,0,1-1.43.34,1.74,1.74,0,0,1-1.18-.37,1.29,1.29,0,0,1-.42-1,1.62,1.62,0,0,1,.57-1.25,2.44,2.44,0,0,1,1.69-.52H76Z"></path> <path class="cls-1" d="M109,143a3,3,0,0,0-.57-1.86A3.4,3.4,0,0,0,106.8,140a3.51,3.51,0,0,0,1.46-1.14,2.65,2.65,0,0,0,.53-1.59,3.17,3.17,0,0,0-1.44-2.78,6.9,6.9,0,0,0-3.92-1,6.14,6.14,0,0,0-3.7,1.07,3.11,3.11,0,0,0-1.41,2.8l0,.07h3.38a1.22,1.22,0,0,1,.52-1,2.28,2.28,0,0,1,1.37-.38,1.74,1.74,0,0,1,1.31.43,1.5,1.5,0,0,1,.4,1.05,1.35,1.35,0,0,1-.42,1.05,1.93,1.93,0,0,1-1.3.37h-1.86v2.22h1.86a2.29,2.29,0,0,1,1.47.39,1.49,1.49,0,0,1,.48,1.22,1.55,1.55,0,0,1-.48,1.15,2,2,0,0,1-1.45.47,2.43,2.43,0,0,1-1.55-.44,1.37,1.37,0,0,1-.55-1.11H98.13v.07a3.18,3.18,0,0,0,1.51,3,6.8,6.8,0,0,0,3.79,1,7.09,7.09,0,0,0,4-1A3.27,3.27,0,0,0,109,143"></path> <path class="cls-1" d="M63.55,166.39a1.93,1.93,0,0,1-.56,1.45,2.35,2.35,0,0,1-3.47-.51,6,6,0,0,1-.56-2.79v-.36a5.61,5.61,0,0,1,.61-2.77,2.21,2.21,0,0,1,2.09-1.07,2.44,2.44,0,0,1,.87.15,2.18,2.18,0,0,1,.65.38l.58,2h2.83l0-3.45a5.53,5.53,0,0,0-2.07-1.31,7.94,7.94,0,0,0-2.81-.47,5.77,5.77,0,0,0-4.58,1.84,6.88,6.88,0,0,0-1.61,4.69v.36A7,7,0,0,0,57,169.24a6.2,6.2,0,0,0,8.23.51,4,4,0,0,0,1.47-3.28l0-.07Z"></path> <polygon class="cls-1" points="72.08 138.75 72.08 144.16 70.41 144.52 70.41 146.62 77.43 146.62 77.43 144.52 75.57 144.16 75.57 136.15 77.43 135.79 77.43 133.69 75.57 133.69 72.08 133.69 67.88 141.55 67.81 141.54 67.81 136.15 69.48 135.79 69.48 133.69 67.81 133.69 62.46 133.69 62.46 135.79 64.32 136.15 64.32 144.16 62.46 144.52 62.46 146.62 67.81 146.62 72.02 138.74 72.08 138.75"></polygon> <path class="cls-1" d="M98.14,163.89l1.5-2.34a2.28,2.28,0,0,1,.67-.71,1.4,1.4,0,0,1,.77-.27,1.44,1.44,0,0,1,.35,0l.44.11.59-2.41a5.19,5.19,0,0,0-1-.46,3.26,3.26,0,0,0-1.07-.17,3.43,3.43,0,0,0-2,.57,5.65,5.65,0,0,0-1.51,1.69l-1.72,2.87h-1.4v-2.46l1.5-.36v-2.1H88.81V160l1.49.36v2.46H88.94l-1.72-2.87a5.74,5.74,0,0,0-1.52-1.69,3.43,3.43,0,0,0-2-.57,3.27,3.27,0,0,0-1.08.17,4.72,4.72,0,0,0-.95.46l.59,2.41.43-.11a1.48,1.48,0,0,1,.36,0,1.39,1.39,0,0,1,.76.27,2.41,2.41,0,0,1,.68.71l1.5,2.34-2.74,4.57-1.77.26v2.09H86.3L88.79,166H90.3v2.39l-1.49.36v2.09h6.47v-2.09l-1.5-.36V166h1.55l2.47,4.84h4.83v-2.09l-1.78-.26Z"></path> <path class="cls-1" d="M89,145.55a4,4,0,0,0,1.47-3.28l0-.07H87.25a1.92,1.92,0,0,1-.56,1.45,2.35,2.35,0,0,1-3.46-.52,6,6,0,0,1-.56-2.79V140a5.65,5.65,0,0,1,.61-2.77,2.21,2.21,0,0,1,2.09-1.07,2.45,2.45,0,0,1,.87.15,2.26,2.26,0,0,1,.65.38l.57,2h2.83l0-3.46a5.53,5.53,0,0,0-2.07-1.31,8,8,0,0,0-2.81-.47,5.75,5.75,0,0,0-4.58,1.84A6.87,6.87,0,0,0,79.17,140v.36A7,7,0,0,0,80.73,145a6.21,6.21,0,0,0,8.23.51"></path> <path class="cls-1" d="M44,145.12a7.4,7.4,0,0,0,1.33-4.61v-.25A8.36,8.36,0,0,0,44,135.32a4.3,4.3,0,0,0-3.72-1.87,3.74,3.74,0,0,0-1.86.45A4.14,4.14,0,0,0,37,135.19l-.17-1.51H31.81v2.1l1.86.36v13l-1.68.36v2.1h6.85v-2.1l-1.68-.36v-3.74a3.72,3.72,0,0,0,1.35,1.1,4.18,4.18,0,0,0,1.8.38,4.39,4.39,0,0,0,3.7-1.75m-2.16-4.61a5.21,5.21,0,0,1-.59,2.69,2,2,0,0,1-1.86,1A3,3,0,0,1,38,143.9a2.11,2.11,0,0,1-.88-.84V137.4a2.26,2.26,0,0,1,.88-.92,2.63,2.63,0,0,1,1.35-.33,2,2,0,0,1,1.86,1.14,6.3,6.3,0,0,1,.61,3Z"></path> <polygon class="cls-1" points="142.84 157.89 141.35 157.89 141.35 159.99 142.84 160.35 142.84 163.12 138.59 163.12 138.59 160.35 140.1 159.99 140.1 157.89 133.25 157.89 133.25 159.99 135.11 160.35 135.11 168.36 133.25 168.72 133.25 170.81 140.1 170.81 140.1 168.72 138.59 168.36 138.59 165.8 142.84 165.8 142.84 168.36 141.35 168.72 141.35 170.81 148.19 170.81 148.19 168.72 146.33 168.36 146.33 160.35 148.19 159.99 148.19 157.89 146.33 157.89 142.84 157.89"></polygon> <path class="cls-1" d="M181.83,139a6.49,6.49,0,0,0-4.12-1.17h-2.43v-1.71l1.86-.36v-2.1h-7.21v2.1l1.86.36v8l-1.86.36v2.09h7.78a6.33,6.33,0,0,0,4.11-1.22,4,4,0,0,0,1.49-3.23,3.81,3.81,0,0,0-1.49-3.14m-2.52,4.43a2.3,2.3,0,0,1-1.6.48h-2.43v-3.57h2.43a2.25,2.25,0,0,1,1.61.5,1.75,1.75,0,0,1,.52,1.32,1.64,1.64,0,0,1-.53,1.27"></path> <polygon class="cls-1" points="188.7 133.69 183.35 133.69 183.35 135.79 185.22 136.15 185.22 144.16 183.53 144.52 183.53 146.62 190.38 146.62 190.38 144.52 188.7 144.16 188.7 133.69"></polygon> <polygon class="cls-1" points="199.81 140.08 203.14 136 204.31 135.79 204.31 133.69 198.47 133.69 198.47 135.71 199.67 135.85 197.75 138.34 195.79 135.85 196.97 135.71 196.97 133.69 191.15 133.69 191.15 135.79 192.36 136 195.75 140.08 192.24 144.33 191.04 144.52 191.04 146.62 196.79 146.62 196.79 144.61 195.75 144.48 197.8 141.86 199.8 144.47 198.62 144.61 198.62 146.62 204.53 146.62 204.53 144.52 203.31 144.33 199.81 140.08"></polygon> <path class="cls-1" d="M14.67,129.7A8.74,8.74,0,0,0,11,129a7.41,7.41,0,0,0-5.75,2.44,8.87,8.87,0,0,0-2.22,6.22v.58a8.85,8.85,0,0,0,2.23,6.23A7.47,7.47,0,0,0,11,146.87a9,9,0,0,0,3.65-.73,7.46,7.46,0,0,0,2.68-1.94v-3.44H14.76l-.35,2.32a3.2,3.2,0,0,1-1.32.81,5.68,5.68,0,0,1-1.89.3,4,4,0,0,1-3.44-1.66,7.08,7.08,0,0,1-1.22-4.31v-.61a7.06,7.06,0,0,1,1.22-4.3,4.1,4.1,0,0,1,3.49-1.65,5.18,5.18,0,0,1,1.85.3,3.64,3.64,0,0,1,1.3.81l.35,2.32h2.59v-3.44a7.8,7.8,0,0,0-2.69-1.94"></path> <path class="cls-1" d="M30.14,145.37l-.94-2.15a8.82,8.82,0,0,1-1.67.73,6.74,6.74,0,0,1-1.92.23,2.65,2.65,0,0,1-2.06-.82,3.41,3.41,0,0,1-.86-2.1l0-.07h7.72v-1.9A6.09,6.09,0,0,0,29,135a5.24,5.24,0,0,0-4.06-1.58,5.25,5.25,0,0,0-4.25,1.86A7.07,7.07,0,0,0,19.09,140v.48a6.42,6.42,0,0,0,1.67,4.55,5.85,5.85,0,0,0,4.47,1.79,9,9,0,0,0,2.84-.43,6.81,6.81,0,0,0,2.07-1.07m-6.75-8.49a1.82,1.82,0,0,1,1.53-.74,1.88,1.88,0,0,1,1.57.66,2.81,2.81,0,0,1,.52,1.78v.31H22.74l0-.06a3.88,3.88,0,0,1,.69-1.95"></path> <polygon class="cls-1" points="34.93 157.89 33.44 157.89 33.44 159.99 34.93 160.35 34.93 163.12 30.68 163.12 30.68 160.35 32.18 159.99 32.18 157.89 25.34 157.89 25.34 159.99 27.2 160.35 27.2 168.36 25.34 168.72 25.34 170.81 32.18 170.81 32.18 168.72 30.68 168.36 30.68 165.8 34.93 165.8 34.93 168.36 33.44 168.72 33.44 170.81 40.28 170.81 40.28 168.72 38.42 168.36 38.42 160.35 40.28 159.99 40.28 157.89 38.42 157.89 34.93 157.89"></polygon> <path class="cls-1" d="M53.13,168.08c0-.17,0-.36,0-.56v-5.34a4,4,0,0,0-1.5-3.35,6.14,6.14,0,0,0-3.9-1.18,8,8,0,0,0-2.7.45,9.72,9.72,0,0,0-2.19,1.09V162h2.63l.23-1.38a2.76,2.76,0,0,1,.75-.33,3.89,3.89,0,0,1,1.06-.13,2.24,2.24,0,0,1,1.59.51,1.92,1.92,0,0,1,.54,1.45v1.26H47.85a7.64,7.64,0,0,0-4.28,1,3.2,3.2,0,0,0-1.46,2.81A3.64,3.64,0,0,0,43.23,170a4.29,4.29,0,0,0,3,1,4.61,4.61,0,0,0,2-.45,4.83,4.83,0,0,0,1.51-1.16,4.48,4.48,0,0,0,.17.68,6,6,0,0,0,.25.66h4v-2.09l-1.06-.14a3.55,3.55,0,0,1,0-.5m-3.5-.79a2.75,2.75,0,0,1-1,.85,3,3,0,0,1-1.43.34,1.74,1.74,0,0,1-1.18-.37,1.29,1.29,0,0,1-.42-1,1.62,1.62,0,0,1,.57-1.25,2.44,2.44,0,0,1,1.69-.52h1.78Z"></path> <rect class="cls-1" x="140.63" y="128.9" width="3.19" height="2.44"></rect> <path class="cls-1" d="M149.82,143.22a8.82,8.82,0,0,1-1.67.73,6.74,6.74,0,0,1-1.92.23,2.65,2.65,0,0,1-2.06-.82,3.41,3.41,0,0,1-.86-2.1l0-.07h7.72v-1.9A6.09,6.09,0,0,0,149.6,135a5.9,5.9,0,0,0-8.31.28,7.07,7.07,0,0,0-1.58,4.74v.48a6.42,6.42,0,0,0,1.67,4.55,5.85,5.85,0,0,0,4.47,1.79,9,9,0,0,0,2.84-.43,6.81,6.81,0,0,0,2.07-1.07ZM144,136.88a1.82,1.82,0,0,1,1.53-.74,1.88,1.88,0,0,1,1.57.66,2.81,2.81,0,0,1,.52,1.78v.31h-4.28l0-.06a3.88,3.88,0,0,1,.69-1.95"></path> <rect class="cls-1" x="146.6" y="128.9" width="3.19" height="2.44"></rect> <path class="cls-1" d="M174.59,155.69a4.43,4.43,0,0,0,3-1,3,3,0,0,0,1.06-2.48l0-.07h-2.38a1.63,1.63,0,0,1-.41,1.15,1.61,1.61,0,0,1-1.25.45,1.63,1.63,0,0,1-1.28-.45,1.66,1.66,0,0,1-.4-1.15h-2.37l0,.07a2.92,2.92,0,0,0,1,2.48,4.5,4.5,0,0,0,3,1"></path> <polygon class="cls-1" points="176.71 157.89 172.51 165.75 172.44 165.74 172.44 160.35 174.11 159.99 174.11 157.89 172.44 157.89 167.08 157.89 167.08 159.99 168.94 160.35 168.94 168.36 167.08 168.72 167.08 170.81 172.44 170.81 176.64 162.94 176.71 162.95 176.71 168.36 175.04 168.72 175.04 170.81 182.05 170.81 182.05 168.72 180.2 168.36 180.2 160.35 182.05 159.99 182.05 157.89 180.2 157.89 176.71 157.89"></polygon> <polygon class="cls-1" points="159.78 157.89 155.58 165.75 155.51 165.74 155.51 160.35 157.18 159.99 157.18 157.89 155.51 157.89 150.16 157.89 150.16 159.99 152.02 160.35 152.02 168.36 150.16 168.72 150.16 170.81 155.51 170.81 159.71 162.94 159.78 162.95 159.78 168.36 158.11 168.72 158.11 170.81 165.13 170.81 165.13 168.72 163.27 168.36 163.27 160.35 165.13 159.99 165.13 157.89 163.27 157.89 159.78 157.89"></polygon> <polygon class="cls-1" points="152.96 144.52 152.96 146.61 159.8 146.61 159.8 144.52 158.3 144.16 158.3 141.6 162.55 141.6 162.55 144.16 161.05 144.52 161.05 146.61 167.9 146.61 167.9 144.52 166.04 144.16 166.04 136.15 167.9 135.79 167.9 133.69 166.04 133.69 162.55 133.69 161.05 133.69 161.05 135.79 162.55 136.15 162.55 138.92 158.3 138.92 158.3 136.15 159.8 135.79 159.8 133.69 152.96 133.69 152.96 135.79 154.82 136.15 154.82 144.16 152.96 144.52"></polygon> <rect class="cls-1" x="2.7" y="116.76" width="201.17" height="5.86" rx="2.93" ry="2.93"></rect> <path class="cls-1" d="M93.38,98.27h-.29a58.42,58.42,0,0,1-17.38-5c-11.83-5.63-18.09-14.59-18.09-25.9,0-25.08,15.49-63.51,34.58-63.51,22.21,0,36.95,38.22,36.95,63.51,0,11.31-6.25,20.27-18.09,25.9a58.44,58.44,0,0,1-17.38,5h-.29M92.2,9.71c-13.87,0-28.72,33.83-28.72,57.65,0,20.64,26.79,24.64,29.9,25a53.49,53.49,0,0,0,15.29-4.48c9.7-4.66,14.62-11.57,14.62-20.55,0-12.11-3.58-26.76-9.34-38.24C105.46,12.23,96.68,9.71,92.2,9.71"></path> <path class="cls-1" d="M93.61,119.18a2.93,2.93,0,0,1-2.93-2.93V57.82a2.93,2.93,0,0,1,5.86,0v58.42a2.93,2.93,0,0,1-2.93,2.93"></path> <path class="cls-1" d="M93.61,85.66A2.93,2.93,0,0,1,91.73,85L78.85,74.11a2.93,2.93,0,0,1,3.78-4.48L95.5,80.49a2.93,2.93,0,0,1-1.89,5.17"></path> <path class="cls-1" d="M93.62,89.66a2.93,2.93,0,0,1-1.84-5.21l11.65-9.39a2.93,2.93,0,1,1,3.68,4.56L95.45,89a2.93,2.93,0,0,1-1.84.65"></path> <path class="cls-1" d="M93.62,72.88a2.93,2.93,0,0,1-1.94-5.12l8.34-7.4a2.93,2.93,0,1,1,3.89,4.38l-8.34,7.4a2.93,2.93,0,0,1-1.94.74"></path> <path class="cls-1" d="M48.51,119.18a2.93,2.93,0,0,1-2.93-2.93V64.59a2.93,2.93,0,1,1,5.86,0v51.66a2.93,2.93,0,0,1-2.93,2.93"></path> <path class="cls-1" d="M48.5,85.66A2.93,2.93,0,0,1,46.62,85l-9.84-8.3a2.93,2.93,0,0,1,3.78-4.48l9.84,8.3a2.93,2.93,0,0,1-1.89,5.17"></path> <path class="cls-1" d="M48.51,89.66a2.93,2.93,0,0,1-1.84-5.21l6.87-5.53a2.93,2.93,0,1,1,3.67,4.56L50.34,89a2.93,2.93,0,0,1-1.84.65"></path> <path class="cls-1" d="M76.16,97H20.85a2.93,2.93,0,0,1-2.77-3.89L45.74,12.88a2.92,2.92,0,0,1,2.75-2h0a2.93,2.93,0,0,1,2.76,1.94L64.94,51a2.93,2.93,0,0,1,.12,1.56,76.65,76.65,0,0,0-1.58,14.8c0,8.29,4.22,14.85,12.55,19.48a2.93,2.93,0,0,1,1.35,1.64l1.56,4.71A2.93,2.93,0,0,1,76.16,97M25,91.18H71.84c-9.31-5.65-14.22-13.86-14.22-23.82a81.7,81.7,0,0,1,1.53-15.14L48.56,22.67Z"></path> <path class="cls-1" d="M148.17,119.18a2.93,2.93,0,0,1-2.93-2.93V63.54a2.93,2.93,0,1,1,5.86,0v52.71a2.93,2.93,0,0,1-2.93,2.93"></path> <path class="cls-1" d="M147.4,82.92a2.93,2.93,0,0,1-1.89-.69l-9.29-7.84A2.93,2.93,0,0,1,140,69.91l9.29,7.84a2.93,2.93,0,0,1-1.89,5.17"></path> <path class="cls-1" d="M148.67,91.74a2.93,2.93,0,0,1-2.15-4.92L157.47,75a2.93,2.93,0,1,1,4.3,4L150.82,90.8a2.91,2.91,0,0,1-2.15.94"></path> <path class="cls-1" d="M148.17,100.07a38.26,38.26,0,0,1-30.44-14.95l-1.52-2,1.68-1.82a20,20,0,0,0,5.39-14,88.34,88.34,0,0,0-5-27.81L117.74,38l1.08-1.27a38.48,38.48,0,1,1,29.35,63.37m-24.3-16.73a32.63,32.63,0,1,0,.51-44.07,93.52,93.52,0,0,1,4.77,28.08,25.65,25.65,0,0,1-5.28,16"></path> </svg> 